<svg width="192" height="30" viewBox="0 0 192 30" fill="none" xmlns="http://www.w3.org/2000/svg">
<path d="M4.272 13.408C4.272 13.92 5 14.36 6.456 14.728C6.968 14.84 7.432 14.976 7.848 15.136C8.264 15.28 8.68 15.496 9.096 15.784C9.528 16.056 9.864 16.424 10.104 16.888C10.344 17.352 10.464 17.888 10.464 18.496C10.464 19.728 10 20.68 9.072 21.352C8.144 22.008 7 22.336 5.64 22.336C3.176 22.336 1.496 21.384 0.6 19.48L3.288 17.968C3.656 19.008 4.44 19.528 5.64 19.528C6.744 19.528 7.296 19.184 7.296 18.496C7.296 17.984 6.568 17.544 5.112 17.176C4.568 17.032 4.104 16.888 3.72 16.744C3.336 16.6 2.92 16.392 2.472 16.12C2.024 15.832 1.68 15.472 1.44 15.04C1.216 14.592 1.104 14.072 1.104 13.48C1.104 12.296 1.536 11.368 2.4 10.696C3.28 10.008 4.368 9.664 5.664 9.664C6.64 9.664 7.528 9.888 8.328 10.336C9.128 10.768 9.76 11.392 10.224 12.208L7.584 13.648C7.2 12.832 6.56 12.424 5.664 12.424C5.264 12.424 4.928 12.52 4.656 12.712C4.4 12.888 4.272 13.12 4.272 13.408ZM21.411 11.416V10H24.507V22H21.411V20.584C20.483 21.752 19.179 22.336 17.499 22.336C15.899 22.336 14.523 21.728 13.371 20.512C12.235 19.28 11.667 17.776 11.667 16C11.667 14.24 12.235 12.744 13.371 11.512C14.523 10.28 15.899 9.664 17.499 9.664C19.179 9.664 20.483 10.248 21.411 11.416ZM15.699 18.448C16.323 19.072 17.115 19.384 18.075 19.384C19.035 19.384 19.827 19.072 20.451 18.448C21.091 17.808 21.411 16.992 21.411 16C21.411 15.008 21.091 14.2 20.451 13.576C19.827 12.936 19.035 12.616 18.075 12.616C17.115 12.616 16.323 12.936 15.699 13.576C15.075 14.2 14.763 15.008 14.763 16C14.763 16.992 15.075 17.808 15.699 18.448ZM36.4104 11.416V5.2H39.5064V22H36.4104V20.584C35.4984 21.752 34.2024 22.336 32.5224 22.336C30.9064 22.336 29.5224 21.728 28.3704 20.512C27.2344 19.28 26.6664 17.776 26.6664 16C26.6664 14.24 27.2344 12.744 28.3704 11.512C29.5224 10.28 30.9064 9.664 32.5224 9.664C34.2024 9.664 35.4984 10.248 36.4104 11.416ZM30.6984 18.448C31.3544 19.072 32.1544 19.384 33.0984 19.384C34.0584 19.384 34.8504 19.072 35.4744 18.448C36.0984 17.808 36.4104 16.992 36.4104 16C36.4104 15.008 36.0984 14.2 35.4744 13.576C34.8504 12.936 34.0584 12.616 33.0984 12.616C32.1384 12.616 31.3384 12.936 30.6984 13.576C30.0744 14.2 29.7624 15.008 29.7624 16C29.7624 16.992 30.0744 17.808 30.6984 18.448ZM48.0499 22.336C46.2419 22.336 44.7299 21.728 43.5139 20.512C42.3139 19.296 41.7139 17.792 41.7139 16C41.7139 14.208 42.3139 12.704 43.5139 11.488C44.7299 10.272 46.2419 9.664 48.0499 9.664C49.2179 9.664 50.2819 9.944 51.2419 10.504C52.2019 11.064 52.9299 11.816 53.4259 12.76L50.7619 14.32C50.5219 13.824 50.1539 13.432 49.6579 13.144C49.1779 12.856 48.6339 12.712 48.0259 12.712C47.0979 12.712 46.3299 13.024 45.7219 13.648C45.1139 14.256 44.8099 15.04 44.8099 16C44.8099 16.928 45.1139 17.712 45.7219 18.352C46.3299 18.96 47.0979 19.264 48.0259 19.264C48.6499 19.264 49.2019 19.128 49.6819 18.856C50.1779 18.568 50.5459 18.176 50.7859 17.68L53.4739 19.216C52.9459 20.176 52.1939 20.936 51.2179 21.496C50.2579 22.056 49.2019 22.336 48.0499 22.336ZM61.7833 9.664C63.1113 9.664 64.1913 10.104 65.0233 10.984C65.8873 11.88 66.3193 13.096 66.3193 14.632V22H63.2233V15.016C63.2233 14.232 63.0073 13.624 62.5753 13.192C62.1593 12.76 61.5833 12.544 60.8473 12.544C60.0313 12.544 59.3833 12.8 58.9033 13.312C58.4393 13.808 58.2073 14.544 58.2073 15.52V22H55.1113V5.2H58.2073V11.344C58.9433 10.224 60.1353 9.664 61.7833 9.664ZM70.4989 8.56C69.9869 8.56 69.5389 8.376 69.1549 8.008C68.7869 7.624 68.6029 7.176 68.6029 6.664C68.6029 6.152 68.7869 5.704 69.1549 5.32C69.5389 4.936 69.9869 4.744 70.4989 4.744C71.0269 4.744 71.4749 4.936 71.8429 5.32C72.2269 5.704 72.4189 6.152 72.4189 6.664C72.4189 7.176 72.2269 7.624 71.8429 8.008C71.4749 8.376 71.0269 8.56 70.4989 8.56ZM72.0589 22H68.9629V10H72.0589V22ZM80.9886 15.928L85.9566 22H82.3566L77.9886 16.552V22H74.8926V5.2H77.9886V15.28L82.1166 10H85.8126L80.9886 15.928ZM104.47 18.4L107.398 10H110.806L106.246 22H102.718L98.1579 10H101.566L104.47 18.4ZM128.643 2.8L119.043 24.4H117.675L127.275 2.8H128.643ZM189.85 20.272C189.85 20.832 189.65 21.312 189.25 21.712C188.85 22.112 188.37 22.312 187.81 22.312C187.25 22.312 186.77 22.112 186.37 21.712C185.97 21.312 185.77 20.832 185.77 20.272C185.77 19.712 185.97 19.232 186.37 18.832C186.77 18.432 187.25 18.232 187.81 18.232C188.37 18.232 188.85 18.432 189.25 18.832C189.65 19.232 189.85 19.712 189.85 20.272Z" fill="black"/>
<path d="M143.725 10V12.976H141.013V17.968C141.013 18.384 141.117 18.688 141.325 18.88C141.533 19.072 141.837 19.184 142.237 19.216C142.637 19.232 143.133 19.224 143.725 19.192V22C141.629 22.24 140.133 22.048 139.237 21.424C138.357 20.784 137.917 19.632 137.917 17.968V12.976H135.829V10H137.917V7.576L141.013 6.64V10H143.725ZM157.197 17.272H148.149C148.549 18.776 149.677 19.528 151.533 19.528C152.717 19.528 153.613 19.128 154.221 18.328L156.717 19.768C155.533 21.48 153.789 22.336 151.485 22.336C149.501 22.336 147.909 21.736 146.709 20.536C145.509 19.336 144.909 17.824 144.909 16C144.909 14.208 145.501 12.704 146.685 11.488C147.853 10.272 149.373 9.664 151.245 9.664C153.021 9.664 154.469 10.272 155.589 11.488C156.741 12.704 157.317 14.208 157.317 16C157.317 16.336 157.277 16.76 157.197 17.272ZM148.101 14.872H154.221C154.045 14.088 153.685 13.488 153.141 13.072C152.613 12.656 151.981 12.448 151.245 12.448C150.413 12.448 149.725 12.664 149.181 13.096C148.637 13.512 148.277 14.104 148.101 14.872ZM165.097 22.336C163.289 22.336 161.777 21.728 160.561 20.512C159.361 19.296 158.761 17.792 158.761 16C158.761 14.208 159.361 12.704 160.561 11.488C161.777 10.272 163.289 9.664 165.097 9.664C166.265 9.664 167.329 9.944 168.289 10.504C169.249 11.064 169.977 11.816 170.473 12.76L167.809 14.32C167.569 13.824 167.201 13.432 166.705 13.144C166.225 12.856 165.681 12.712 165.073 12.712C164.145 12.712 163.377 13.024 162.769 13.648C162.161 14.256 161.857 15.04 161.857 16C161.857 16.928 162.161 17.712 162.769 18.352C163.377 18.96 164.145 19.264 165.073 19.264C165.697 19.264 166.249 19.128 166.729 18.856C167.225 18.568 167.593 18.176 167.833 17.68L170.521 19.216C169.993 20.176 169.241 20.936 168.265 21.496C167.305 22.056 166.249 22.336 165.097 22.336ZM178.83 9.664C180.158 9.664 181.238 10.104 182.07 10.984C182.934 11.88 183.366 13.096 183.366 14.632V22H180.27V15.016C180.27 14.232 180.054 13.624 179.622 13.192C179.206 12.76 178.63 12.544 177.894 12.544C177.078 12.544 176.43 12.8 175.95 13.312C175.486 13.808 175.254 14.544 175.254 15.52V22H172.158V5.2H175.254V11.344C175.99 10.224 177.182 9.664 178.83 9.664Z" fill="#E82121"/>
<g clip-path="url(#clip0_10_30)">
<path fill-rule="evenodd" clip-rule="evenodd" d="M88.5407 10.9434C87.9243 11.3127 87.5621 11.9814 86.8377 13.3189L86.5927 13.7712C85.8683 15.1087 85.506 15.7774 85.5259 16.5096C85.5457 17.2418 85.944 17.9067 86.7406 19.2365L87.01 19.6862C87.8066 21.016 88.2049 21.6808 88.8412 22.0438C89.4774 22.4067 90.2379 22.4029 91.759 22.3951L92.2734 22.3925C93.7944 22.3848 94.5549 22.381 95.1714 22.0117C95.7878 21.6424 96.15 20.9737 96.8744 19.6362L97.1194 19.1839C97.8438 17.8464 98.2061 17.1777 98.1862 16.4455C98.1664 15.7133 97.7681 15.0484 96.9715 13.7186L96.7021 13.2689C95.9055 11.9391 95.5072 11.2743 94.8709 10.9113C94.2347 10.5484 93.4742 10.5523 91.9531 10.56L91.4387 10.5626C89.9177 10.5703 89.1572 10.5741 88.5407 10.9434ZM89.7807 17.7208C89.0941 16.5746 89.4666 15.0889 90.6128 14.4022C91.759 13.7156 93.2447 14.0881 93.9314 15.2343C94.618 16.3805 94.2455 17.8662 93.0993 18.5529C91.9531 19.2395 90.4674 18.867 89.7807 17.7208Z" fill="#E82121"/>
</g>
<defs>
<clipPath id="clip0_10_30">
<rect x="81" y="13.9567" width="15.4829" height="15.4829" rx="5" transform="rotate(-30.9243 81 13.9567)" fill="white"/>
</clipPath>
</defs>
</svg>
